<svg width="565" height="599" viewBox="0 0 565 599" fill="none" xmlns="http://www.w3.org/2000/svg">
<g filter="url(#filter0_d_212_16)">
<path d="M48.88 577.61C43.9 582.59 38.05 585.08 31.33 585.08C21.67 585.08 14.47 581.48 9.73 574.28C6.31 569.12 4.6 563.06 4.6 556.1C4.6 547.04 6.94 539.75 11.62 534.23C16.24 528.71 22.66 525.95 30.88 525.95C36.64 525.95 42.4 528.38 48.16 533.24L43.57 540.71C39.25 537.59 35.32 536.03 31.78 536.03C26.86 536.03 23.05 538.1 20.35 542.24C18.01 545.78 16.84 550.4 16.84 556.1C16.84 561.14 18.22 565.46 20.98 569.06C23.92 572.84 27.85 574.73 32.77 574.73C36.01 574.73 39.85 573.32 44.29 570.5L48.88 577.61ZM78.3339 525.95C87.0939 525.95 93.8439 529.43 98.5839 536.39C102.304 541.85 104.164 548.45 104.164 556.19C104.164 565.07 101.734 572.18 96.8739 577.52C92.2539 582.56 86.0739 585.08 78.3339 585.08C69.4539 585.08 62.7039 581.84 58.0839 575.36C54.3639 570.26 52.5039 563.87 52.5039 556.19C52.5039 547.19 54.9339 539.84 59.7939 534.14C64.4139 528.68 70.5939 525.95 78.3339 525.95ZM78.3339 575.18C82.6539 575.18 85.9839 573.56 88.3239 570.32C90.6639 567.02 91.8339 562.31 91.8339 556.19C91.8339 549.65 90.5439 544.55 87.9639 540.89C85.5639 537.65 82.3539 536.03 78.3339 536.03C74.0139 536.03 70.6539 537.8 68.2539 541.34C65.9139 544.88 64.7439 549.83 64.7439 556.19C64.7439 568.85 69.2739 575.18 78.3339 575.18ZM141.721 570.5C145.081 558.2 149.581 543.71 155.221 527.03H172.321V584H160.441V537.74C157.621 549.92 153.001 565.34 146.581 584H136.771C129.991 563.42 125.401 548.15 123.001 538.19V584H111.391V527.03H127.771C133.411 542.39 138.061 556.88 141.721 570.5ZM213.443 570.5C216.803 558.2 221.303 543.71 226.943 527.03H244.043V584H232.163V537.74C229.343 549.92 224.723 565.34 218.303 584H208.493C201.713 563.42 197.123 548.15 194.723 538.19V584H183.113V527.03H199.493C205.133 542.39 209.783 556.88 213.443 570.5ZM277.065 525.95C285.825 525.95 292.575 529.43 297.315 536.39C301.035 541.85 302.895 548.45 302.895 556.19C302.895 565.07 300.465 572.18 295.605 577.52C290.985 582.56 284.805 585.08 277.065 585.08C268.185 585.08 261.435 581.84 256.815 575.36C253.095 570.26 251.235 563.87 251.235 556.19C251.235 547.19 253.665 539.84 258.525 534.14C263.145 528.68 269.325 525.95 277.065 525.95ZM277.065 575.18C281.385 575.18 284.715 573.56 287.055 570.32C289.395 567.02 290.565 562.31 290.565 556.19C290.565 549.65 289.275 544.55 286.695 540.89C284.295 537.65 281.085 536.03 277.065 536.03C272.745 536.03 269.385 537.8 266.985 541.34C264.645 544.88 263.475 549.83 263.475 556.19C263.475 568.85 268.005 575.18 277.065 575.18ZM321.732 545.84V584H310.122V527.03H319.932C329.532 539.51 339.072 552.62 348.552 566.36V527.03H360.342V584H350.262C344.622 577.34 335.112 564.62 321.732 545.84ZM424.423 531.71C423.343 533.33 421.663 535.76 419.383 539C414.583 536.9 410.293 535.85 406.513 535.85C401.533 535.85 399.043 537.71 399.043 541.43C399.043 543.11 399.613 544.43 400.753 545.39C401.893 546.35 404.263 547.52 407.863 548.9C414.343 551.42 418.993 554.15 421.813 557.09C424.693 560.03 426.133 563.57 426.133 567.71C426.133 573.53 423.943 578.03 419.563 581.21C415.963 583.79 411.493 585.08 406.153 585.08C399.853 585.08 393.133 582.8 385.993 578.24L391.213 570.95C394.693 573.29 399.163 574.46 404.623 574.46C410.803 574.46 413.893 571.97 413.893 566.99C413.893 563.75 410.563 560.99 403.903 558.71C393.163 555.11 387.793 549.35 387.793 541.43C387.793 536.63 389.593 532.82 393.193 530C396.553 527.3 401.023 525.95 406.603 525.95C412.963 525.95 418.903 527.87 424.423 531.71ZM432.355 527.03H469.615V536.48H444.145V549.89H465.385V559.34H444.145V574.55H470.785V584H432.355V527.03ZM516.402 577.61C511.422 582.59 505.572 585.08 498.852 585.08C489.192 585.08 481.992 581.48 477.252 574.28C473.832 569.12 472.122 563.06 472.122 556.1C472.122 547.04 474.462 539.75 479.142 534.23C483.762 528.71 490.182 525.95 498.402 525.95C504.162 525.95 509.922 528.38 515.682 533.24L511.092 540.71C506.772 537.59 502.842 536.03 499.302 536.03C494.382 536.03 490.572 538.1 487.872 542.24C485.532 545.78 484.362 550.4 484.362 556.1C484.362 561.14 485.742 565.46 488.502 569.06C491.442 572.84 495.372 574.73 500.292 574.73C503.532 574.73 507.372 573.32 511.812 570.5L516.402 577.61ZM558.906 531.71C557.826 533.33 556.146 535.76 553.866 539C549.066 536.9 544.776 535.85 540.996 535.85C536.016 535.85 533.526 537.71 533.526 541.43C533.526 543.11 534.096 544.43 535.236 545.39C536.376 546.35 538.746 547.52 542.346 548.9C548.826 551.42 553.476 554.15 556.296 557.09C559.176 560.03 560.616 563.57 560.616 567.71C560.616 573.53 558.426 578.03 554.046 581.21C550.446 583.79 545.976 585.08 540.636 585.08C534.336 585.08 527.616 582.8 520.476 578.24L525.696 570.95C529.176 573.29 533.646 574.46 539.106 574.46C545.286 574.46 548.376 571.97 548.376 566.99C548.376 563.75 545.046 560.99 538.386 558.71C527.646 555.11 522.276 549.35 522.276 541.43C522.276 536.63 524.076 532.82 527.676 530C531.036 527.3 535.506 525.95 541.086 525.95C547.446 525.95 553.386 527.87 558.906 531.71Z" fill="white"/>
</g>
<path d="M478.65 249.93C478.65 354.75 396.41 440.38 292.94 445.81L222.76 505.45V436.81C143.64 411.55 86.35 337.43 86.35 249.93C86.35 141.6 174.17 53.78 282.5 53.78C390.83 53.78 478.65 141.6 478.65 249.93Z" fill="url(#paint0_linear_212_16)"/>
<path d="M394.419 72.35C394.419 72.35 436.409 97.97 449.929 124.3C449.929 124.3 484.479 48.46 410.389 0.660005C409.539 0.110005 408.469 0.909996 408.759 1.87C411.789 11.89 419.709 46.45 394.419 72.34V72.35Z" fill="url(#paint1_radial_212_16)"/>
<path d="M170.59 71.87C170.59 71.87 128.6 97.49 115.08 123.82C115.08 123.82 80.53 47.98 154.62 0.179992C155.47 -0.370008 156.54 0.429998 156.25 1.39C153.22 11.41 145.3 45.97 170.59 71.86V71.87Z" fill="url(#paint2_radial_212_16)"/>
<path d="M281.932 395L385.948 290.09C385.948 290.09 442.65 237.095 402.81 174.896C362.959 112.686 302.843 136.501 281.943 157.997H282.062C261.161 136.491 201.035 112.686 161.195 174.896C121.344 237.106 178.057 290.09 178.057 290.09L282.072 395" stroke="white" stroke-width="12.15" stroke-linecap="round" stroke-linejoin="round"/>
<defs>
<filter id="filter0_d_212_16" x="0.6" y="525.95" width="564.016" height="72.13" filterUnits="userSpaceOnUse" color-interpolation-filters="sRGB">
<feFlood flood-opacity="0" result="BackgroundImageFix"/>
<feColorMatrix in="SourceAlpha" type="matrix" values="0 0 0 0 0 0 0 0 0 0 0 0 0 0 0 0 0 0 127 0" result="hardAlpha"/>
<feOffset dy="9"/>
<feGaussianBlur stdDeviation="2"/>
<feComposite in2="hardAlpha" operator="out"/>
<feColorMatrix type="matrix" values="0 0 0 0 0.592157 0 0 0 0 0.0509804 0 0 0 0 0.501961 0 0 0 1 0"/>
<feBlend mode="normal" in2="BackgroundImageFix" result="effect1_dropShadow_212_16"/>
<feBlend mode="normal" in="SourceGraphic" in2="effect1_dropShadow_212_16" result="shape"/>
</filter>
<linearGradient id="paint0_linear_212_16" x1="265" y1="23.7" x2="270" y2="472.7" gradientUnits="userSpaceOnUse">
<stop stop-color="#FF219B"/>
<stop offset="0.960431" stop-color="#8A0B7D"/>
</linearGradient>
<radialGradient id="paint1_radial_212_16" cx="0" cy="0" r="1" gradientUnits="userSpaceOnUse" gradientTransform="translate(426.199 62.39) scale(49.21 49.21)">
<stop stop-color="#F835A0"/>
<stop offset="1" stop-color="#D22D94"/>
</radialGradient>
<radialGradient id="paint2_radial_212_16" cx="0" cy="0" r="1" gradientUnits="userSpaceOnUse" gradientTransform="translate(138.81 61.91) scale(49.21 49.21)">
<stop stop-color="#F835A0"/>
<stop offset="1" stop-color="#D22D94"/>
</radialGradient>
</defs>
</svg>
